<svg xmlns="http://www.w3.org/2000/svg" xmlns:xlink="http://www.w3.org/1999/xlink" width="500" zoomAndPan="magnify" viewBox="0 0 375 374.999991" height="500" preserveAspectRatio="xMidYMid meet" version="1.0"><defs><clipPath id="c3186bb087"><path d="M 47 117 L 303.238281 117 L 303.238281 375 L 47 375 Z M 47 117 " clip-rule="nonzero"/></clipPath></defs><rect x="-37.5" width="450" fill="#ffffff" y="-37.499999" height="449.999989" fill-opacity="1"/><rect x="-37.5" width="450" fill="#000000" y="-37.499999" height="449.999989" fill-opacity="1"/><g clip-path="url(#c3186bb087)"><path fill="#945cfd" d="M 230.503906 374.980469 C 229.660156 374.980469 228.824219 374.898438 227.996094 374.734375 C 227.164062 374.570312 226.359375 374.324219 225.582031 374 C 224.800781 373.679688 224.058594 373.28125 223.355469 372.8125 C 222.652344 372.34375 222.003906 371.808594 221.40625 371.210938 C 220.808594 370.613281 220.273438 369.964844 219.804688 369.261719 C 219.335938 368.558594 218.941406 367.816406 218.617188 367.039062 C 218.292969 366.257812 218.050781 365.453125 217.882812 364.625 C 217.71875 363.796875 217.636719 362.957031 217.636719 362.113281 L 217.636719 328.660156 C 217.835938 326.734375 217.835938 324.8125 217.632812 322.886719 C 217.429688 320.964844 217.027344 319.082031 216.429688 317.242188 C 215.828125 315.402344 215.046875 313.644531 214.082031 311.96875 C 213.113281 310.292969 211.984375 308.738281 210.6875 307.300781 C 209.886719 306.429688 209.21875 305.46875 208.683594 304.417969 C 208.148438 303.363281 207.761719 302.257812 207.53125 301.101562 C 207.300781 299.941406 207.230469 298.773438 207.320312 297.59375 C 207.410156 296.417969 207.65625 295.273438 208.0625 294.164062 C 208.46875 293.050781 209.015625 292.019531 209.707031 291.058594 C 210.398438 290.101562 211.203125 289.253906 212.128906 288.515625 C 213.050781 287.78125 214.058594 287.179688 215.148438 286.722656 C 216.234375 286.261719 217.367188 285.960938 218.539062 285.8125 C 249.933594 282.078125 278.886719 272.042969 278.886719 217.613281 C 278.890625 212.53125 278.160156 207.558594 276.691406 202.695312 C 275.222656 197.828125 273.078125 193.28125 270.265625 189.050781 C 268.976562 187.121094 267.890625 185.085938 267.003906 182.945312 C 266.117188 180.800781 265.449219 178.59375 264.996094 176.320312 C 264.542969 174.046875 264.316406 171.75 264.316406 169.433594 C 264.3125 167.113281 264.539062 164.816406 264.988281 162.542969 C 266.160156 156.496094 266.160156 150.449219 264.988281 144.402344 C 255.296875 147.679688 246.332031 152.351562 238.097656 158.425781 C 237.324219 158.976562 236.496094 159.433594 235.621094 159.800781 C 234.746094 160.167969 233.84375 160.433594 232.90625 160.601562 C 231.972656 160.769531 231.03125 160.832031 230.085938 160.789062 C 229.136719 160.75 228.203125 160.605469 227.289062 160.355469 C 221.511719 158.722656 215.648438 157.496094 209.699219 156.671875 C 203.753906 155.847656 197.777344 155.433594 191.773438 155.433594 C 185.769531 155.433594 179.792969 155.847656 173.847656 156.671875 C 167.902344 157.496094 162.039062 158.722656 156.261719 160.355469 C 155.34375 160.605469 154.414062 160.75 153.464844 160.789062 C 152.515625 160.832031 151.574219 160.769531 150.640625 160.601562 C 149.707031 160.433594 148.800781 160.167969 147.925781 159.800781 C 147.050781 159.433594 146.226562 158.976562 145.453125 158.425781 C 137.164062 152.28125 128.113281 147.605469 118.300781 144.402344 C 117.066406 150.449219 117.066406 156.496094 118.300781 162.542969 C 118.71875 164.847656 118.914062 167.171875 118.886719 169.511719 C 118.859375 171.851562 118.605469 174.167969 118.132812 176.460938 C 117.660156 178.753906 116.96875 180.980469 116.066406 183.140625 C 115.167969 185.304688 114.066406 187.359375 112.769531 189.308594 C 109.964844 193.566406 107.832031 198.140625 106.363281 203.023438 C 104.894531 207.910156 104.15625 212.902344 104.148438 218 C 104.148438 268.054688 128.339844 281.4375 164.625 286.070312 C 165.8125 286.214844 166.957031 286.523438 168.058594 286.988281 C 169.160156 287.457031 170.175781 288.0625 171.109375 288.8125 C 172.039062 289.5625 172.851562 290.425781 173.542969 291.402344 C 174.234375 292.378906 174.777344 293.433594 175.175781 294.5625 C 175.550781 295.65625 175.773438 296.78125 175.84375 297.933594 C 175.914062 299.089844 175.828125 300.234375 175.59375 301.367188 C 175.355469 302.496094 174.972656 303.578125 174.441406 304.605469 C 173.914062 305.636719 173.257812 306.578125 172.472656 307.429688 C 171.222656 308.765625 170.121094 310.21875 169.171875 311.785156 C 168.21875 313.347656 167.441406 314.996094 166.832031 316.722656 C 166.222656 318.449219 165.796875 320.222656 165.554688 322.039062 C 165.3125 323.851562 165.261719 325.675781 165.398438 327.5 L 165.398438 362.113281 C 165.398438 362.957031 165.3125 363.796875 165.148438 364.625 C 164.984375 365.453125 164.742188 366.257812 164.417969 367.039062 C 164.09375 367.816406 163.699219 368.558594 163.226562 369.261719 C 162.757812 369.964844 162.226562 370.613281 161.628906 371.210938 C 161.03125 371.808594 160.378906 372.34375 159.679688 372.8125 C 158.976562 373.28125 158.234375 373.679688 157.453125 374 C 156.671875 374.324219 155.867188 374.570312 155.039062 374.734375 C 154.210938 374.898438 153.375 374.980469 152.53125 374.980469 C 151.683594 374.980469 150.847656 374.898438 150.019531 374.734375 C 149.191406 374.570312 148.386719 374.324219 147.605469 374 C 146.824219 373.679688 146.082031 373.28125 145.378906 372.8125 C 144.679688 372.34375 144.027344 371.808594 143.429688 371.210938 C 142.832031 370.613281 142.300781 369.964844 141.832031 369.261719 C 141.359375 368.558594 140.964844 367.816406 140.640625 367.039062 C 140.316406 366.257812 140.074219 365.453125 139.910156 364.625 C 139.746094 363.796875 139.664062 362.957031 139.664062 362.113281 L 139.664062 354.78125 C 136.511719 355.140625 133.355469 355.308594 130.183594 355.28125 C 127.015625 355.253906 123.859375 355.035156 120.714844 354.617188 C 117.574219 354.203125 114.46875 353.59375 111.402344 352.796875 C 108.335938 352 105.328125 351.015625 102.378906 349.847656 C 99.433594 348.679688 96.570312 347.335938 93.789062 345.8125 C 91.007812 344.292969 88.332031 342.605469 85.757812 340.753906 C 83.1875 338.902344 80.734375 336.902344 78.410156 334.75 C 76.082031 332.597656 73.898438 330.308594 71.851562 327.886719 C 67.59375 323.167969 62.617188 319.394531 56.925781 316.5625 C 56.105469 316.351562 55.316406 316.0625 54.550781 315.695312 C 53.789062 315.332031 53.070312 314.890625 52.394531 314.382812 C 51.714844 313.875 51.097656 313.304688 50.53125 312.675781 C 49.96875 312.042969 49.46875 311.363281 49.039062 310.632812 C 48.609375 309.90625 48.253906 309.140625 47.972656 308.34375 C 47.695312 307.542969 47.496094 306.726562 47.375 305.886719 C 47.257812 305.050781 47.222656 304.207031 47.269531 303.363281 C 47.316406 302.515625 47.445312 301.683594 47.65625 300.863281 C 47.867188 300.046875 48.15625 299.253906 48.523438 298.492188 C 48.890625 297.726562 49.332031 297.007812 49.839844 296.332031 C 50.347656 295.65625 50.917969 295.035156 51.550781 294.472656 C 52.179688 293.90625 52.859375 293.410156 53.589844 292.980469 C 54.320312 292.550781 55.082031 292.195312 55.882812 291.914062 C 56.679688 291.636719 57.5 291.4375 58.335938 291.320312 C 59.175781 291.199219 60.015625 291.164062 60.863281 291.214844 C 61.707031 291.261719 62.539062 291.390625 63.359375 291.601562 C 68.308594 293.40625 72.960938 295.785156 77.316406 298.75 C 81.671875 301.710938 85.597656 305.160156 89.09375 309.101562 C 101.960938 321.96875 114.828125 333.292969 139.277344 328.660156 C 138.839844 321.675781 139.828125 314.898438 142.234375 308.328125 C 115.730469 301.636719 77.898438 282.59375 77.898438 218.257812 C 77.890625 214.46875 78.160156 210.699219 78.707031 206.949219 C 79.253906 203.199219 80.070312 199.511719 81.160156 195.882812 C 82.25 192.253906 83.601562 188.722656 85.210938 185.292969 C 86.820312 181.863281 88.671875 178.570312 90.765625 175.410156 C 91.550781 174.238281 92.085938 172.964844 92.375 171.582031 C 92.664062 170.203125 92.683594 168.820312 92.441406 167.433594 C 91.792969 163.980469 91.398438 160.496094 91.25 156.984375 C 91.105469 153.472656 91.214844 149.96875 91.574219 146.472656 C 91.933594 142.976562 92.539062 139.527344 93.398438 136.117188 C 94.253906 132.710938 95.351562 129.378906 96.6875 126.128906 C 97.050781 125.257812 97.507812 124.4375 98.050781 123.664062 C 98.597656 122.894531 99.222656 122.191406 99.921875 121.558594 C 100.621094 120.925781 101.382812 120.375 102.203125 119.910156 C 103.027344 119.441406 103.886719 119.070312 104.792969 118.796875 C 109.167969 117.507812 124.863281 114.933594 154.589844 134.234375 C 160.582031 132.792969 166.640625 131.710938 172.761719 130.984375 C 178.886719 130.257812 185.03125 129.894531 191.195312 129.894531 C 197.359375 129.894531 203.503906 130.257812 209.628906 130.984375 C 215.75 131.710938 221.808594 132.792969 227.800781 134.234375 C 257.527344 114.933594 273.222656 117.378906 277.46875 118.796875 C 278.375 119.070312 279.234375 119.441406 280.058594 119.910156 C 280.878906 120.375 281.640625 120.925781 282.339844 121.558594 C 283.039062 122.191406 283.664062 122.894531 284.210938 123.664062 C 284.753906 124.4375 285.210938 125.257812 285.574219 126.128906 C 286.914062 129.390625 288.011719 132.730469 288.871094 136.148438 C 289.726562 139.570312 290.335938 143.03125 290.695312 146.539062 C 291.054688 150.046875 291.164062 153.558594 291.015625 157.082031 C 290.871094 160.605469 290.472656 164.097656 289.820312 167.5625 C 289.554688 168.828125 289.546875 170.097656 289.792969 171.371094 C 290.035156 172.644531 290.519531 173.816406 291.238281 174.894531 C 293.339844 178.0625 295.195312 181.367188 296.808594 184.808594 C 298.421875 188.25 299.773438 191.789062 300.863281 195.429688 C 301.953125 199.070312 302.769531 202.769531 303.3125 206.53125 C 303.855469 210.292969 304.121094 214.074219 304.105469 217.871094 C 304.105469 283.109375 266.53125 302.023438 239.769531 307.941406 C 242.148438 314.917969 243.09375 322.078125 242.597656 329.429688 L 242.597656 362.113281 C 242.601562 362.925781 242.527344 363.734375 242.375 364.53125 C 242.222656 365.332031 241.996094 366.109375 241.699219 366.867188 C 241.398438 367.621094 241.03125 368.34375 240.597656 369.03125 C 240.160156 369.71875 239.664062 370.355469 239.109375 370.949219 C 238.550781 371.542969 237.941406 372.078125 237.285156 372.554688 C 236.625 373.03125 235.929688 373.445312 235.191406 373.789062 C 234.457031 374.132812 233.691406 374.40625 232.90625 374.605469 C 232.117188 374.808594 231.316406 374.933594 230.503906 374.980469 Z M 230.503906 374.980469 " fill-opacity="1" fill-rule="nonzero"/></g></svg>